<?xml version="1.0" encoding="UTF-8"?>
<svg id="Layer_2" data-name="Layer 2" xmlns="http://www.w3.org/2000/svg" viewBox="0 0 38.85 31.06">
  <defs>
    <style>
      .cls-1 {
        fill: #fefefe;
      }

      .cls-1, .cls-2, .cls-3 {
        stroke-width: 0px;
      }

      .cls-2 {
        fill: #fefdfd;
      }

      .cls-3 {
        fill: #fefefd;
      }
    </style>
  </defs>
  <g id="Layer_1-2" data-name="Layer 1">
    <path class="cls-1" d="m18.38,15.61c0,4.58,0,9.15,0,13.73,0,.61.14,1.32-.59,1.64-.65.28-1.1-.21-1.54-.57-2.51-1.99-5.02-3.98-7.5-6.01-.55-.45-1.1-.66-1.81-.64-1.83.04-3.66-.02-5.49.02C.43,23.81,0,23.37,0,22.38c.01-4.58.01-9.15,0-13.73,0-1.02.48-1.4,1.47-1.38,1.87.04,3.74,0,5.62.02.62,0,1.1-.16,1.59-.56,2.52-2.05,5.06-4.06,7.6-6.08.44-.35.87-.87,1.54-.55.64.31.57.96.57,1.53,0,4.66,0,9.32,0,13.98Z"/>
    <path class="cls-1" d="m38.85,15.66c-.07,4.64-1.7,9.02-5.06,12.73-.49.54-1,1.36-1.82.58-.74-.7-.02-1.26.44-1.78,4.85-5.65,5.88-11.94,3.09-18.83-.72-1.79-1.81-3.36-3.12-4.78-.48-.52-1.15-1.08-.36-1.77.79-.7,1.28.09,1.74.59,3.36,3.65,4.98,8,5.1,13.27Z"/>
    <path class="cls-3" d="m33.37,15.62c-.1,3.4-1.29,6.51-3.72,9.13-.47.51-.99.89-1.59.32-.55-.52-.23-1.05.21-1.52,4.44-4.71,4.2-12.01-.07-16.41-.42-.44-.65-.94-.14-1.41.54-.51,1.04-.23,1.52.22,2.25,2.15,3.77,5.93,3.79,9.66Z"/>
    <path class="cls-2" d="m27.86,15.41c-.11,2.2-.78,4-2.16,5.5-.42.46-.88.87-1.48.33-.57-.51-.29-1.01.1-1.53,2.27-3.03,2.27-5.68,0-8.63-.4-.52-.66-1.02-.09-1.52.6-.54,1.06-.12,1.48.34,1.46,1.62,2.11,3.54,2.15,5.52Z"/>
  </g>
</svg>