<svg width="275" height="2160" viewBox="0 0 275 2160" fill="none" xmlns="http://www.w3.org/2000/svg">
<rect width="1920" height="275" transform="matrix(0 -1 -1 0 275 1920)" fill="#2E9F76"/>
<path d="M183.333 957C184.99 957 186.333 958.343 186.333 960C186.333 961.657 184.99 963 183.333 963L183.333 957ZM183.333 963L-0.000304864 963L-0.000305488 957L183.333 957L183.333 963Z" fill="black" fill-opacity="0.85"/>
<path d="M183.333 657C184.99 657 186.333 658.343 186.333 660C186.333 661.657 184.99 663 183.333 663L183.333 657ZM183.333 663L-0.000304864 663L-0.000305488 657L183.333 657L183.333 663Z" fill="black" fill-opacity="0.85"/>
<path d="M45.833 929C46.3853 929 46.833 929.448 46.833 930C46.833 930.552 46.3853 931 45.833 931L45.833 929ZM45.833 931L-0.000320034 931L-0.000320835 929L45.833 929L45.833 931Z" fill="black" fill-opacity="0.85"/>
<path d="M45.833 899C46.3853 899 46.833 899.448 46.833 900C46.833 900.552 46.3853 901 45.833 901L45.833 899ZM45.833 901L-0.000320296 901L-0.000320573 899L45.833 899L45.833 901Z" fill="black" fill-opacity="0.85"/>
<path d="M45.833 869C46.3853 869 46.833 869.448 46.833 870C46.833 870.552 46.3853 871 45.833 871L45.833 869ZM45.833 871L-0.000320297 871L-0.000320572 869L45.833 869L45.833 871Z" fill="black" fill-opacity="0.85"/>
<path d="M45.833 839C46.3853 839 46.833 839.448 46.833 840C46.833 840.552 46.3853 841 45.833 841L45.833 839ZM45.833 841L-0.000320297 841L-0.000320572 839L45.833 839L45.833 841Z" fill="black" fill-opacity="0.85"/>
<path d="M45.833 779C46.3853 779 46.833 779.448 46.833 780C46.833 780.552 46.3853 781 45.833 781L45.833 779ZM45.833 781L-0.000320297 781L-0.000320572 779L45.833 779L45.833 781Z" fill="black" fill-opacity="0.85"/>
<path d="M45.833 749C46.3853 749 46.833 749.448 46.833 750C46.833 750.552 46.3853 751 45.833 751L45.833 749ZM45.833 751L-0.000320297 751L-0.000320572 749L45.833 749L45.833 751Z" fill="black" fill-opacity="0.85"/>
<path d="M45.833 719C46.3853 719 46.833 719.448 46.833 720C46.833 720.552 46.3853 721 45.833 721L45.833 719ZM45.833 721L-0.000320297 721L-0.000320572 719L45.833 719L45.833 721Z" fill="black" fill-opacity="0.85"/>
<path d="M45.833 689C46.3853 689 46.833 689.448 46.833 690C46.833 690.552 46.3853 691 45.833 691L45.833 689ZM45.833 691L-0.000320297 691L-0.000320572 689L45.833 689L45.833 691Z" fill="black" fill-opacity="0.85"/>
<path d="M91.6665 808C92.7711 808 93.6665 808.895 93.6665 810C93.6665 811.105 92.7711 812 91.6665 812L91.6665 808ZM91.6665 812L-0.000152187 812L-0.000152989 808L91.6665 808L91.6665 812Z" fill="black" fill-opacity="0.85"/>
<path d="M183.333 1257C184.99 1257 186.333 1258.34 186.333 1260C186.333 1261.66 184.99 1263 183.333 1263L183.333 1257ZM183.333 1263L-0.000304864 1263L-0.000305488 1257L183.333 1257L183.333 1263Z" fill="black" fill-opacity="0.85"/>
<path d="M45.833 1229C46.3853 1229 46.833 1229.45 46.833 1230C46.833 1230.55 46.3853 1231 45.833 1231L45.833 1229ZM45.833 1231L-0.000320034 1231L-0.000320835 1229L45.833 1229L45.833 1231Z" fill="black" fill-opacity="0.85"/>
<path d="M45.833 1199C46.3853 1199 46.833 1199.45 46.833 1200C46.833 1200.55 46.3853 1201 45.833 1201L45.833 1199ZM45.833 1201L-0.000320296 1201L-0.000320573 1199L45.833 1199L45.833 1201Z" fill="black" fill-opacity="0.85"/>
<path d="M45.833 1169C46.3853 1169 46.833 1169.45 46.833 1170C46.833 1170.55 46.3853 1171 45.833 1171L45.833 1169ZM45.833 1171L-0.000320297 1171L-0.000320572 1169L45.833 1169L45.833 1171Z" fill="black" fill-opacity="0.85"/>
<path d="M45.833 1139C46.3853 1139 46.833 1139.45 46.833 1140C46.833 1140.55 46.3853 1141 45.833 1141L45.833 1139ZM45.833 1141L-0.000320297 1141L-0.000320572 1139L45.833 1139L45.833 1141Z" fill="black" fill-opacity="0.85"/>
<path d="M45.833 1079C46.3853 1079 46.833 1079.45 46.833 1080C46.833 1080.55 46.3853 1081 45.833 1081L45.833 1079ZM45.833 1081L-0.000320297 1081L-0.000320572 1079L45.833 1079L45.833 1081Z" fill="black" fill-opacity="0.85"/>
<path d="M45.833 1049C46.3853 1049 46.833 1049.45 46.833 1050C46.833 1050.55 46.3853 1051 45.833 1051L45.833 1049ZM45.833 1051L-0.000320297 1051L-0.000320572 1049L45.833 1049L45.833 1051Z" fill="black" fill-opacity="0.85"/>
<path d="M45.833 1019C46.3853 1019 46.833 1019.45 46.833 1020C46.833 1020.55 46.3853 1021 45.833 1021L45.833 1019ZM45.833 1021L-0.000320297 1021L-0.000320572 1019L45.833 1019L45.833 1021Z" fill="black" fill-opacity="0.85"/>
<path d="M45.833 989C46.3853 989 46.833 989.448 46.833 990C46.833 990.552 46.3853 991 45.833 991L45.833 989ZM45.833 991L-0.000320297 991L-0.000320572 989L45.833 989L45.833 991Z" fill="black" fill-opacity="0.85"/>
<path d="M91.6665 1108C92.7711 1108 93.6665 1108.9 93.6665 1110C93.6665 1111.1 92.7711 1112 91.6665 1112L91.6665 1108ZM91.6665 1112L-0.000152187 1112L-0.000152989 1108L91.6665 1108L91.6665 1112Z" fill="black" fill-opacity="0.85"/>
<path d="M183.333 1557C184.99 1557 186.333 1558.34 186.333 1560C186.333 1561.66 184.99 1563 183.333 1563L183.333 1557ZM183.333 1563L-0.000304864 1563L-0.000305488 1557L183.333 1557L183.333 1563Z" fill="black" fill-opacity="0.85"/>
<path d="M45.833 1529C46.3853 1529 46.833 1529.45 46.833 1530C46.833 1530.55 46.3853 1531 45.833 1531L45.833 1529ZM45.833 1531L-0.000320034 1531L-0.000320835 1529L45.833 1529L45.833 1531Z" fill="black" fill-opacity="0.85"/>
<path d="M45.833 1499C46.3853 1499 46.833 1499.45 46.833 1500C46.833 1500.55 46.3853 1501 45.833 1501L45.833 1499ZM45.833 1501L-0.000320296 1501L-0.000320573 1499L45.833 1499L45.833 1501Z" fill="black" fill-opacity="0.85"/>
<path d="M45.833 1469C46.3853 1469 46.833 1469.45 46.833 1470C46.833 1470.55 46.3853 1471 45.833 1471L45.833 1469ZM45.833 1471L-0.000320297 1471L-0.000320572 1469L45.833 1469L45.833 1471Z" fill="black" fill-opacity="0.85"/>
<path d="M45.833 1439C46.3853 1439 46.833 1439.45 46.833 1440C46.833 1440.55 46.3853 1441 45.833 1441L45.833 1439ZM45.833 1441L-0.000320297 1441L-0.000320572 1439L45.833 1439L45.833 1441Z" fill="black" fill-opacity="0.85"/>
<path d="M45.833 1379C46.3853 1379 46.833 1379.45 46.833 1380C46.833 1380.55 46.3853 1381 45.833 1381L45.833 1379ZM45.833 1381L-0.000320297 1381L-0.000320572 1379L45.833 1379L45.833 1381Z" fill="black" fill-opacity="0.85"/>
<path d="M45.833 1349C46.3853 1349 46.833 1349.45 46.833 1350C46.833 1350.55 46.3853 1351 45.833 1351L45.833 1349ZM45.833 1351L-0.000320297 1351L-0.000320572 1349L45.833 1349L45.833 1351Z" fill="black" fill-opacity="0.85"/>
<path d="M45.833 1319C46.3853 1319 46.833 1319.45 46.833 1320C46.833 1320.55 46.3853 1321 45.833 1321L45.833 1319ZM45.833 1321L-0.000320297 1321L-0.000320572 1319L45.833 1319L45.833 1321Z" fill="black" fill-opacity="0.85"/>
<path d="M45.833 1289C46.3853 1289 46.833 1289.45 46.833 1290C46.833 1290.55 46.3853 1291 45.833 1291L45.833 1289ZM45.833 1291L-0.000320297 1291L-0.000320572 1289L45.833 1289L45.833 1291Z" fill="black" fill-opacity="0.85"/>
<path d="M91.6665 1408C92.7711 1408 93.6665 1408.9 93.6665 1410C93.6665 1411.1 92.7711 1412 91.6665 1412L91.6665 1408ZM91.6665 1412L-0.000152187 1412L-0.000152989 1408L91.6665 1408L91.6665 1412Z" fill="black" fill-opacity="0.85"/>
<path d="M183.333 1857C184.99 1857 186.333 1858.34 186.333 1860C186.333 1861.66 184.99 1863 183.333 1863L183.333 1857ZM183.333 1863L-0.000304864 1863L-0.000305488 1857L183.333 1857L183.333 1863Z" fill="black" fill-opacity="0.85"/>
<path d="M45.833 1829C46.3853 1829 46.833 1829.45 46.833 1830C46.833 1830.55 46.3853 1831 45.833 1831L45.833 1829ZM45.833 1831L-0.000320034 1831L-0.000320835 1829L45.833 1829L45.833 1831Z" fill="black" fill-opacity="0.85"/>
<path d="M45.833 1799C46.3853 1799 46.833 1799.45 46.833 1800C46.833 1800.55 46.3853 1801 45.833 1801L45.833 1799ZM45.833 1801L-0.000320296 1801L-0.000320573 1799L45.833 1799L45.833 1801Z" fill="black" fill-opacity="0.85"/>
<path d="M45.833 1769C46.3853 1769 46.833 1769.45 46.833 1770C46.833 1770.55 46.3853 1771 45.833 1771L45.833 1769ZM45.833 1771L-0.000320297 1771L-0.000320572 1769L45.833 1769L45.833 1771Z" fill="black" fill-opacity="0.85"/>
<path d="M45.833 1739C46.3853 1739 46.833 1739.45 46.833 1740C46.833 1740.55 46.3853 1741 45.833 1741L45.833 1739ZM45.833 1741L-0.000320297 1741L-0.000320572 1739L45.833 1739L45.833 1741Z" fill="black" fill-opacity="0.85"/>
<path d="M45.833 1679C46.3853 1679 46.833 1679.45 46.833 1680C46.833 1680.55 46.3853 1681 45.833 1681L45.833 1679ZM45.833 1681L-0.000320297 1681L-0.000320572 1679L45.833 1679L45.833 1681Z" fill="black" fill-opacity="0.85"/>
<path d="M45.833 1649C46.3853 1649 46.833 1649.45 46.833 1650C46.833 1650.55 46.3853 1651 45.833 1651L45.833 1649ZM45.833 1651L-0.000320297 1651L-0.000320572 1649L45.833 1649L45.833 1651Z" fill="black" fill-opacity="0.85"/>
<path d="M45.833 1619C46.3853 1619 46.833 1619.45 46.833 1620C46.833 1620.55 46.3853 1621 45.833 1621L45.833 1619ZM45.833 1621L-0.000320297 1621L-0.000320572 1619L45.833 1619L45.833 1621Z" fill="black" fill-opacity="0.85"/>
<path d="M45.833 1589C46.3853 1589 46.833 1589.45 46.833 1590C46.833 1590.55 46.3853 1591 45.833 1591L45.833 1589ZM45.833 1591L-0.000320297 1591L-0.000320572 1589L45.833 1589L45.833 1591Z" fill="black" fill-opacity="0.85"/>
<path d="M91.6665 1708C92.7711 1708 93.6665 1708.9 93.6665 1710C93.6665 1711.1 92.7711 1712 91.6665 1712L91.6665 1708ZM91.6665 1712L-0.000152187 1712L-0.000152989 1708L91.6665 1708L91.6665 1712Z" fill="black" fill-opacity="0.85"/>
<path d="M183.333 357C184.99 357 186.333 358.343 186.333 360C186.333 361.657 184.99 363 183.333 363L183.333 357ZM183.333 363L-0.000304864 363L-0.000305488 357L183.333 357L183.333 363Z" fill="black" fill-opacity="0.85"/>
<path d="M45.833 629C46.3853 629 46.833 629.448 46.833 630C46.833 630.552 46.3853 631 45.833 631L45.833 629ZM45.833 631L-0.000320034 631L-0.000320835 629L45.833 629L45.833 631Z" fill="black" fill-opacity="0.85"/>
<path d="M45.833 599C46.3853 599 46.833 599.448 46.833 600C46.833 600.552 46.3853 601 45.833 601L45.833 599ZM45.833 601L-0.000320296 601L-0.000320573 599L45.833 599L45.833 601Z" fill="black" fill-opacity="0.85"/>
<path d="M45.833 569C46.3853 569 46.833 569.448 46.833 570C46.833 570.552 46.3853 571 45.833 571L45.833 569ZM45.833 571L-0.000320297 571L-0.000320572 569L45.833 569L45.833 571Z" fill="black" fill-opacity="0.85"/>
<path d="M45.833 539C46.3853 539 46.833 539.448 46.833 540C46.833 540.552 46.3853 541 45.833 541L45.833 539ZM45.833 541L-0.000320297 541L-0.000320572 539L45.833 539L45.833 541Z" fill="black" fill-opacity="0.85"/>
<path d="M45.833 479C46.3853 479 46.833 479.448 46.833 480C46.833 480.552 46.3853 481 45.833 481L45.833 479ZM45.833 481L-0.000320297 481L-0.000320572 479L45.833 479L45.833 481Z" fill="black" fill-opacity="0.85"/>
<path d="M45.833 449C46.3853 449 46.833 449.448 46.833 450C46.833 450.552 46.3853 451 45.833 451L45.833 449ZM45.833 451L-0.000320297 451L-0.000320572 449L45.833 449L45.833 451Z" fill="black" fill-opacity="0.85"/>
<path d="M45.833 419C46.3853 419 46.833 419.448 46.833 420C46.833 420.552 46.3853 421 45.833 421L45.833 419ZM45.833 421L-0.000320297 421L-0.000320572 419L45.833 419L45.833 421Z" fill="black" fill-opacity="0.85"/>
<path d="M45.833 389C46.3853 389 46.833 389.448 46.833 390C46.833 390.552 46.3853 391 45.833 391L45.833 389ZM45.833 391L-0.000320297 391L-0.000320572 389L45.833 389L45.833 391Z" fill="black" fill-opacity="0.85"/>
<path d="M91.6665 508C92.7711 508 93.6665 508.895 93.6665 510C93.6665 511.105 92.7711 512 91.6665 512L91.6665 508ZM91.6665 512L-0.000152187 512L-0.000152989 508L91.6665 508L91.6665 512Z" fill="black" fill-opacity="0.85"/>
<path d="M183.333 57C184.99 57 186.333 58.3431 186.333 60C186.333 61.6569 184.99 63 183.333 63L183.333 57ZM183.333 63L-0.000304864 63L-0.000305488 57L183.333 57L183.333 63Z" fill="black" fill-opacity="0.85"/>
<path d="M45.833 329C46.3853 329 46.833 329.448 46.833 330C46.833 330.552 46.3853 331 45.833 331L45.833 329ZM45.833 331L-0.000320034 331L-0.000320835 329L45.833 329L45.833 331Z" fill="black" fill-opacity="0.85"/>
<path d="M45.833 299C46.3853 299 46.833 299.448 46.833 300C46.833 300.552 46.3853 301 45.833 301L45.833 299ZM45.833 301L-0.000320296 301L-0.000320573 299L45.833 299L45.833 301Z" fill="black" fill-opacity="0.85"/>
<path d="M45.833 269C46.3853 269 46.833 269.448 46.833 270C46.833 270.552 46.3853 271 45.833 271L45.833 269ZM45.833 271L-0.000320297 271L-0.000320572 269L45.833 269L45.833 271Z" fill="black" fill-opacity="0.85"/>
<path d="M45.833 239C46.3853 239 46.833 239.448 46.833 240C46.833 240.552 46.3853 241 45.833 241L45.833 239ZM45.833 241L-0.000320297 241L-0.000320572 239L45.833 239L45.833 241Z" fill="black" fill-opacity="0.85"/>
<path d="M45.833 179C46.3853 179 46.833 179.448 46.833 180C46.833 180.552 46.3853 181 45.833 181L45.833 179ZM45.833 181L-0.000320297 181L-0.000320572 179L45.833 179L45.833 181Z" fill="black" fill-opacity="0.85"/>
<path d="M45.833 149C46.3853 149 46.833 149.448 46.833 150C46.833 150.552 46.3853 151 45.833 151L45.833 149ZM45.833 151L-0.000320297 151L-0.000320572 149L45.833 149L45.833 151Z" fill="black" fill-opacity="0.85"/>
<path d="M45.833 119C46.3853 119 46.833 119.448 46.833 120C46.833 120.552 46.3853 121 45.833 121L45.833 119ZM45.833 121L-0.000320297 121L-0.000320572 119L45.833 119L45.833 121Z" fill="black" fill-opacity="0.85"/>
<path d="M45.833 89C46.3853 89 46.833 89.4477 46.833 90C46.833 90.5523 46.3853 91 45.833 91L45.833 89ZM45.833 91L-0.000320297 91L-0.000320572 89L45.833 89L45.833 91Z" fill="black" fill-opacity="0.85"/>
<path d="M91.6665 208C92.7711 208 93.6665 208.895 93.6665 210C93.6665 211.105 92.7711 212 91.6665 212L91.6665 208ZM91.6665 212L-0.000152187 212L-0.000152989 208L91.6665 208L91.6665 212Z" fill="black" fill-opacity="0.85"/>
<path d="M183.333 2154C184.99 2154 186.333 2155.34 186.333 2157C186.333 2158.66 184.99 2160 183.333 2160L183.333 2154ZM183.333 2160L-0.000304864 2160L-0.000305488 2154L183.333 2154L183.333 2160Z" fill="black" fill-opacity="0.85"/>
<path d="M45.833 2126C46.3853 2126 46.833 2126.45 46.833 2127C46.833 2127.55 46.3853 2128 45.833 2128L45.833 2126ZM45.833 2128L-0.000320034 2128L-0.000320835 2126L45.833 2126L45.833 2128Z" fill="black" fill-opacity="0.85"/>
<path d="M45.833 2096C46.3853 2096 46.833 2096.45 46.833 2097C46.833 2097.55 46.3853 2098 45.833 2098L45.833 2096ZM45.833 2098L-0.000320296 2098L-0.000320573 2096L45.833 2096L45.833 2098Z" fill="black" fill-opacity="0.85"/>
<path d="M45.833 2066C46.3853 2066 46.833 2066.45 46.833 2067C46.833 2067.55 46.3853 2068 45.833 2068L45.833 2066ZM45.833 2068L-0.000320297 2068L-0.000320572 2066L45.833 2066L45.833 2068Z" fill="black" fill-opacity="0.85"/>
<path d="M45.833 2036C46.3853 2036 46.833 2036.45 46.833 2037C46.833 2037.55 46.3853 2038 45.833 2038L45.833 2036ZM45.833 2038L-0.000320297 2038L-0.000320572 2036L45.833 2036L45.833 2038Z" fill="black" fill-opacity="0.85"/>
<path d="M45.833 1976C46.3853 1976 46.833 1976.45 46.833 1977C46.833 1977.55 46.3853 1978 45.833 1978L45.833 1976ZM45.833 1978L-0.000320297 1978L-0.000320572 1976L45.833 1976L45.833 1978Z" fill="black" fill-opacity="0.85"/>
<path d="M45.833 1946C46.3853 1946 46.833 1946.45 46.833 1947C46.833 1947.55 46.3853 1948 45.833 1948L45.833 1946ZM45.833 1948L-0.000320297 1948L-0.000320572 1946L45.833 1946L45.833 1948Z" fill="black" fill-opacity="0.85"/>
<path d="M45.833 1916C46.3853 1916 46.833 1916.45 46.833 1917C46.833 1917.55 46.3853 1918 45.833 1918L45.833 1916ZM45.833 1918L-0.000320297 1918L-0.000320572 1916L45.833 1916L45.833 1918Z" fill="black" fill-opacity="0.85"/>
<path d="M45.833 1886C46.3853 1886 46.833 1886.45 46.833 1887C46.833 1887.55 46.3853 1888 45.833 1888L45.833 1886ZM45.833 1888L-0.000320297 1888L-0.000320572 1886L45.833 1886L45.833 1888Z" fill="black" fill-opacity="0.85"/>
<path d="M91.6665 2005C92.7711 2005 93.6665 2005.9 93.6665 2007C93.6665 2008.1 92.7711 2009 91.6665 2009L91.6665 2005ZM91.6665 2009L-0.000152187 2009L-0.000152989 2005L91.6665 2005L91.6665 2009Z" fill="black" fill-opacity="0.85"/>
<path d="M45.833 29C46.3853 29 46.833 29.4477 46.833 30C46.833 30.5523 46.3853 31 45.833 31L45.833 29ZM45.833 31L-0.000320034 31L-0.000320835 29L45.833 29L45.833 31Z" fill="black" fill-opacity="0.85"/>
</svg>
