<svg width="105" height="827" viewBox="0 0 105 827" fill="none" xmlns="http://www.w3.org/2000/svg">
<rect width="733.09" height="105" transform="matrix(0 -1 -1 0 105 733.09)" fill="#2E9F76"/>
<path d="M69.9995 363.545C71.6564 363.545 72.9995 364.888 72.9995 366.545C72.9995 368.202 71.6564 369.545 69.9995 369.545L69.9995 363.545ZM69.9995 369.545L-0.000426934 369.545L-0.000427558 363.545L69.9995 363.545L69.9995 369.545Z" fill="black" fill-opacity="0.85"/>
<path d="M69.9995 249C71.6564 249 72.9995 250.343 72.9995 252C72.9995 253.657 71.6564 255 69.9995 255L69.9995 249ZM69.9995 255L-0.000426934 255L-0.000427558 249L69.9995 249L69.9995 255Z" fill="black" fill-opacity="0.85"/>
<path d="M17.5 354.091C18.0523 354.091 18.5 354.538 18.5 355.091C18.5 355.643 18.0523 356.091 17.5 356.091L17.5 354.091ZM17.5 356.091L1.56595e-05 356.091L1.48581e-05 354.091L17.5 354.091L17.5 356.091Z" fill="black" fill-opacity="0.85"/>
<path d="M17.5 342.636C18.0523 342.636 18.5 343.084 18.5 343.636C18.5 344.188 18.0523 344.636 17.5 344.636L17.5 342.636ZM17.5 344.636L1.53974e-05 344.636L1.51202e-05 342.636L17.5 342.636L17.5 344.636Z" fill="black" fill-opacity="0.85"/>
<path d="M17.5 331.181C18.0523 331.181 18.5 331.629 18.5 332.181C18.5 332.734 18.0523 333.181 17.5 333.181L17.5 331.181ZM17.5 333.181L1.53962e-05 333.181L1.51214e-05 331.181L17.5 331.181L17.5 333.181Z" fill="black" fill-opacity="0.85"/>
<path d="M17.5 319.727C18.0523 319.727 18.5 320.175 18.5 320.727C18.5 321.279 18.0523 321.727 17.5 321.727L17.5 319.727ZM17.5 321.727L1.53962e-05 321.727L1.51214e-05 319.727L17.5 319.727L17.5 321.727Z" fill="black" fill-opacity="0.85"/>
<path d="M17.5 296.818C18.0523 296.818 18.5 297.266 18.5 297.818C18.5 298.37 18.0523 298.818 17.5 298.818L17.5 296.818ZM17.5 298.818L1.53962e-05 298.818L1.51214e-05 296.818L17.5 296.818L17.5 298.818Z" fill="black" fill-opacity="0.85"/>
<path d="M17.5 285.363C18.0523 285.363 18.5 285.811 18.5 286.363C18.5 286.916 18.0523 287.363 17.5 287.363L17.5 285.363ZM17.5 287.363L1.53962e-05 287.363L1.51214e-05 285.363L17.5 285.363L17.5 287.363Z" fill="black" fill-opacity="0.85"/>
<path d="M17.5 273.909C18.0523 273.909 18.5 274.357 18.5 274.909C18.5 275.461 18.0523 275.909 17.5 275.909L17.5 273.909ZM17.5 275.909L1.53962e-05 275.909L1.51214e-05 273.909L17.5 273.909L17.5 275.909Z" fill="black" fill-opacity="0.85"/>
<path d="M17.5 262.454C18.0523 262.454 18.5 262.902 18.5 263.454C18.5 264.007 18.0523 264.454 17.5 264.454L17.5 262.454ZM17.5 264.454L1.53962e-05 264.454L1.51214e-05 262.454L17.5 262.454L17.5 264.454Z" fill="black" fill-opacity="0.85"/>
<path d="M35 307.272C36.1046 307.272 37 308.168 37 309.272C37 310.377 36.1046 311.272 35 311.272L35 307.272ZM35 311.272L3.09183e-05 311.272L3.01169e-05 307.272L35 307.272L35 311.272Z" fill="black" fill-opacity="0.85"/>
<path d="M69.9995 478.091C71.6564 478.091 72.9995 479.434 72.9995 481.091C72.9995 482.747 71.6564 484.091 69.9995 484.091L69.9995 478.091ZM69.9995 484.091L-0.000426934 484.091L-0.000427558 478.091L69.9995 478.091L69.9995 484.091Z" fill="black" fill-opacity="0.85"/>
<path d="M17.5 468.636C18.0523 468.636 18.5 469.084 18.5 469.636C18.5 470.188 18.0523 470.636 17.5 470.636L17.5 468.636ZM17.5 470.636L1.56595e-05 470.636L1.48581e-05 468.636L17.5 468.636L17.5 470.636Z" fill="black" fill-opacity="0.85"/>
<path d="M17.5 457.181C18.0523 457.181 18.5 457.629 18.5 458.181C18.5 458.734 18.0523 459.181 17.5 459.181L17.5 457.181ZM17.5 459.181L1.53974e-05 459.181L1.51202e-05 457.181L17.5 457.181L17.5 459.181Z" fill="black" fill-opacity="0.85"/>
<path d="M17.5 445.727C18.0523 445.727 18.5 446.175 18.5 446.727C18.5 447.279 18.0523 447.727 17.5 447.727L17.5 445.727ZM17.5 447.727L1.53962e-05 447.727L1.51214e-05 445.727L17.5 445.727L17.5 447.727Z" fill="black" fill-opacity="0.85"/>
<path d="M17.5 434.272C18.0523 434.272 18.5 434.72 18.5 435.272C18.5 435.825 18.0523 436.272 17.5 436.272L17.5 434.272ZM17.5 436.272L1.53962e-05 436.272L1.51214e-05 434.272L17.5 434.272L17.5 436.272Z" fill="black" fill-opacity="0.85"/>
<path d="M17.5 411.363C18.0523 411.363 18.5 411.811 18.5 412.363C18.5 412.916 18.0523 413.363 17.5 413.363L17.5 411.363ZM17.5 413.363L1.53962e-05 413.363L1.51214e-05 411.363L17.5 411.363L17.5 413.363Z" fill="black" fill-opacity="0.85"/>
<path d="M17.5 399.909C18.0523 399.909 18.5 400.356 18.5 400.909C18.5 401.461 18.0523 401.909 17.5 401.909L17.5 399.909ZM17.5 401.909L1.53962e-05 401.909L1.51214e-05 399.909L17.5 399.909L17.5 401.909Z" fill="black" fill-opacity="0.85"/>
<path d="M17.5 388.454C18.0523 388.454 18.5 388.902 18.5 389.454C18.5 390.007 18.0523 390.454 17.5 390.454L17.5 388.454ZM17.5 390.454L1.53962e-05 390.454L1.51214e-05 388.454L17.5 388.454L17.5 390.454Z" fill="black" fill-opacity="0.85"/>
<path d="M17.5 377C18.0523 377 18.5 377.447 18.5 378C18.5 378.552 18.0523 379 17.5 379L17.5 377ZM17.5 379L1.53962e-05 379L1.51214e-05 377L17.5 377L17.5 379Z" fill="black" fill-opacity="0.85"/>
<path d="M35 421.818C36.1046 421.818 37 422.713 37 423.818C37 424.922 36.1046 425.818 35 425.818L35 421.818ZM35 425.818L3.09183e-05 425.818L3.01169e-05 421.818L35 421.818L35 425.818Z" fill="black" fill-opacity="0.85"/>
<path d="M69.9995 592.636C71.6564 592.636 72.9995 593.979 72.9995 595.636C72.9995 597.293 71.6564 598.636 69.9995 598.636L69.9995 592.636ZM69.9995 598.636L-0.000426934 598.636L-0.000427558 592.636L69.9995 592.636L69.9995 598.636Z" fill="black" fill-opacity="0.85"/>
<path d="M17.5 583.181C18.0523 583.181 18.5 583.629 18.5 584.181C18.5 584.734 18.0523 585.181 17.5 585.181L17.5 583.181ZM17.5 585.181L1.56595e-05 585.181L1.48581e-05 583.181L17.5 583.181L17.5 585.181Z" fill="black" fill-opacity="0.85"/>
<path d="M17.5 571.727C18.0523 571.727 18.5 572.175 18.5 572.727C18.5 573.279 18.0523 573.727 17.5 573.727L17.5 571.727ZM17.5 573.727L1.53974e-05 573.727L1.51202e-05 571.727L17.5 571.727L17.5 573.727Z" fill="black" fill-opacity="0.85"/>
<path d="M17.5 560.272C18.0523 560.272 18.5 560.72 18.5 561.272C18.5 561.825 18.0523 562.272 17.5 562.272L17.5 560.272ZM17.5 562.272L1.53962e-05 562.272L1.51214e-05 560.272L17.5 560.272L17.5 562.272Z" fill="black" fill-opacity="0.85"/>
<path d="M17.5 548.818C18.0523 548.818 18.5 549.265 18.5 549.818C18.5 550.37 18.0523 550.818 17.5 550.818L17.5 548.818ZM17.5 550.818L1.53962e-05 550.818L1.51214e-05 548.818L17.5 548.818L17.5 550.818Z" fill="black" fill-opacity="0.85"/>
<path d="M17.5 525.909C18.0523 525.909 18.5 526.356 18.5 526.909C18.5 527.461 18.0523 527.909 17.5 527.909L17.5 525.909ZM17.5 527.909L1.53962e-05 527.909L1.51214e-05 525.909L17.5 525.909L17.5 527.909Z" fill="black" fill-opacity="0.85"/>
<path d="M17.5 514.454C18.0523 514.454 18.5 514.902 18.5 515.454C18.5 516.006 18.0523 516.454 17.5 516.454L17.5 514.454ZM17.5 516.454L1.53962e-05 516.454L1.51214e-05 514.454L17.5 514.454L17.5 516.454Z" fill="black" fill-opacity="0.85"/>
<path d="M17.5 503C18.0523 503 18.5 503.447 18.5 504C18.5 504.552 18.0523 505 17.5 505L17.5 503ZM17.5 505L1.53962e-05 505L1.51214e-05 503L17.5 503L17.5 505Z" fill="black" fill-opacity="0.85"/>
<path d="M17.5 491.545C18.0523 491.545 18.5 491.993 18.5 492.545C18.5 493.097 18.0523 493.545 17.5 493.545L17.5 491.545ZM17.5 493.545L1.53962e-05 493.545L1.51214e-05 491.545L17.5 491.545L17.5 493.545Z" fill="black" fill-opacity="0.85"/>
<path d="M35 536.363C36.1046 536.363 37 537.259 37 538.363C37 539.468 36.1046 540.363 35 540.363L35 536.363ZM35 540.363L3.09183e-05 540.363L3.01169e-05 536.363L35 536.363L35 540.363Z" fill="black" fill-opacity="0.85"/>
<path d="M69.9995 707.181C71.6564 707.181 72.9995 708.524 72.9995 710.181C72.9995 711.838 71.6564 713.181 69.9995 713.181L69.9995 707.181ZM69.9995 713.181L-0.000426934 713.181L-0.000427558 707.181L69.9995 707.181L69.9995 713.181Z" fill="black" fill-opacity="0.85"/>
<path d="M17.5 697.727C18.0523 697.727 18.5 698.174 18.5 698.727C18.5 699.279 18.0523 699.727 17.5 699.727L17.5 697.727ZM17.5 699.727L1.56595e-05 699.727L1.48581e-05 697.727L17.5 697.727L17.5 699.727Z" fill="black" fill-opacity="0.85"/>
<path d="M17.5 686.272C18.0523 686.272 18.5 686.72 18.5 687.272C18.5 687.824 18.0523 688.272 17.5 688.272L17.5 686.272ZM17.5 688.272L1.53974e-05 688.272L1.51202e-05 686.272L17.5 686.272L17.5 688.272Z" fill="black" fill-opacity="0.85"/>
<path d="M17.5 674.818C18.0523 674.818 18.5 675.265 18.5 675.818C18.5 676.37 18.0523 676.818 17.5 676.818L17.5 674.818ZM17.5 676.818L1.53962e-05 676.818L1.51214e-05 674.818L17.5 674.818L17.5 676.818Z" fill="black" fill-opacity="0.85"/>
<path d="M17.5 663.363C18.0523 663.363 18.5 663.811 18.5 664.363C18.5 664.915 18.0523 665.363 17.5 665.363L17.5 663.363ZM17.5 665.363L1.53962e-05 665.363L1.51214e-05 663.363L17.5 663.363L17.5 665.363Z" fill="black" fill-opacity="0.85"/>
<path d="M17.5 640.454C18.0523 640.454 18.5 640.902 18.5 641.454C18.5 642.006 18.0523 642.454 17.5 642.454L17.5 640.454ZM17.5 642.454L1.53962e-05 642.454L1.51214e-05 640.454L17.5 640.454L17.5 642.454Z" fill="black" fill-opacity="0.85"/>
<path d="M17.5 628.999C18.0523 628.999 18.5 629.447 18.5 629.999C18.5 630.552 18.0523 630.999 17.5 630.999L17.5 628.999ZM17.5 630.999L1.53962e-05 630.999L1.51214e-05 628.999L17.5 628.999L17.5 630.999Z" fill="black" fill-opacity="0.85"/>
<path d="M17.5 617.545C18.0523 617.545 18.5 617.993 18.5 618.545C18.5 619.097 18.0523 619.545 17.5 619.545L17.5 617.545ZM17.5 619.545L1.53962e-05 619.545L1.51214e-05 617.545L17.5 617.545L17.5 619.545Z" fill="black" fill-opacity="0.85"/>
<path d="M17.5 606.09C18.0523 606.09 18.5 606.538 18.5 607.09C18.5 607.643 18.0523 608.09 17.5 608.09L17.5 606.09ZM17.5 608.09L1.53962e-05 608.09L1.51214e-05 606.09L17.5 606.09L17.5 608.09Z" fill="black" fill-opacity="0.85"/>
<path d="M35 650.909C36.1046 650.909 37 651.804 37 652.909C37 654.013 36.1046 654.909 35 654.909L35 650.909ZM35 654.909L3.09183e-05 654.909L3.01169e-05 650.909L35 650.909L35 654.909Z" fill="black" fill-opacity="0.85"/>
<path d="M69.9995 134.455C71.6564 134.455 72.9995 135.798 72.9995 137.455C72.9995 139.111 71.6564 140.455 69.9995 140.455L69.9995 134.455ZM69.9995 140.455L-0.000426934 140.455L-0.000427558 134.455L69.9995 134.455L69.9995 140.455Z" fill="black" fill-opacity="0.85"/>
<path d="M17.5 239.545C18.0523 239.545 18.5 239.993 18.5 240.545C18.5 241.098 18.0523 241.545 17.5 241.545L17.5 239.545ZM17.5 241.545L1.56595e-05 241.545L1.48581e-05 239.545L17.5 239.545L17.5 241.545Z" fill="black" fill-opacity="0.85"/>
<path d="M17.5 228.091C18.0523 228.091 18.5 228.539 18.5 229.091C18.5 229.643 18.0523 230.091 17.5 230.091L17.5 228.091ZM17.5 230.091L1.53974e-05 230.091L1.51202e-05 228.091L17.5 228.091L17.5 230.091Z" fill="black" fill-opacity="0.85"/>
<path d="M17.5 216.636C18.0523 216.636 18.5 217.084 18.5 217.636C18.5 218.189 18.0523 218.636 17.5 218.636L17.5 216.636ZM17.5 218.636L1.53962e-05 218.636L1.51214e-05 216.636L17.5 216.636L17.5 218.636Z" fill="black" fill-opacity="0.85"/>
<path d="M17.5 205.182C18.0523 205.182 18.5 205.629 18.5 206.182C18.5 206.734 18.0523 207.182 17.5 207.182L17.5 205.182ZM17.5 207.182L1.53962e-05 207.182L1.51214e-05 205.182L17.5 205.182L17.5 207.182Z" fill="black" fill-opacity="0.85"/>
<path d="M17.5 182.273C18.0523 182.273 18.5 182.72 18.5 183.273C18.5 183.825 18.0523 184.273 17.5 184.273L17.5 182.273ZM17.5 184.273L1.53962e-05 184.273L1.51214e-05 182.273L17.5 182.273L17.5 184.273Z" fill="black" fill-opacity="0.85"/>
<path d="M17.5 170.818C18.0523 170.818 18.5 171.266 18.5 171.818C18.5 172.37 18.0523 172.818 17.5 172.818L17.5 170.818ZM17.5 172.818L1.53962e-05 172.818L1.51214e-05 170.818L17.5 170.818L17.5 172.818Z" fill="black" fill-opacity="0.85"/>
<path d="M17.5 159.364C18.0523 159.364 18.5 159.811 18.5 160.364C18.5 160.916 18.0523 161.364 17.5 161.364L17.5 159.364ZM17.5 161.364L1.53962e-05 161.364L1.51214e-05 159.364L17.5 159.364L17.5 161.364Z" fill="black" fill-opacity="0.85"/>
<path d="M17.5 147.909C18.0523 147.909 18.5 148.357 18.5 148.909C18.5 149.461 18.0523 149.909 17.5 149.909L17.5 147.909ZM17.5 149.909L1.53962e-05 149.909L1.51214e-05 147.909L17.5 147.909L17.5 149.909Z" fill="black" fill-opacity="0.85"/>
<path d="M35 192.727C36.1046 192.727 37 193.623 37 194.727C37 195.832 36.1046 196.727 35 196.727L35 192.727ZM35 196.727L3.09183e-05 196.727L3.01169e-05 192.727L35 192.727L35 196.727Z" fill="black" fill-opacity="0.85"/>
<path d="M69.9995 19.9091C71.6564 19.9091 72.9995 21.2522 72.9995 22.9091C72.9995 24.5659 71.6564 25.9091 69.9995 25.9091L69.9995 19.9091ZM69.9995 25.9091L-0.000426934 25.9091L-0.000427558 19.9091L69.9995 19.9091L69.9995 25.9091Z" fill="black" fill-opacity="0.85"/>
<path d="M17.5 125C18.0523 125 18.5 125.448 18.5 126C18.5 126.552 18.0523 127 17.5 127L17.5 125ZM17.5 127L1.56595e-05 127L1.48581e-05 125L17.5 125L17.5 127Z" fill="black" fill-opacity="0.85"/>
<path d="M17.5 113.545C18.0523 113.545 18.5 113.993 18.5 114.545C18.5 115.098 18.0523 115.545 17.5 115.545L17.5 113.545ZM17.5 115.545L1.53974e-05 115.545L1.51202e-05 113.545L17.5 113.545L17.5 115.545Z" fill="black" fill-opacity="0.85"/>
<path d="M17.5 102.091C18.0523 102.091 18.5 102.539 18.5 103.091C18.5 103.643 18.0523 104.091 17.5 104.091L17.5 102.091ZM17.5 104.091L1.53962e-05 104.091L1.51214e-05 102.091L17.5 102.091L17.5 104.091Z" fill="black" fill-opacity="0.85"/>
<path d="M17.5 90.6363C18.0523 90.6363 18.5 91.084 18.5 91.6363C18.5 92.1886 18.0523 92.6363 17.5 92.6363L17.5 90.6363ZM17.5 92.6363L1.53962e-05 92.6363L1.51214e-05 90.6363L17.5 90.6363L17.5 92.6363Z" fill="black" fill-opacity="0.85"/>
<path d="M17.5 67.7272C18.0523 67.7272 18.5 68.1749 18.5 68.7272C18.5 69.2795 18.0523 69.7272 17.5 69.7272L17.5 67.7272ZM17.5 69.7272L1.53962e-05 69.7272L1.51214e-05 67.7272L17.5 67.7272L17.5 69.7272Z" fill="black" fill-opacity="0.85"/>
<path d="M17.5 56.2727C18.0523 56.2727 18.5 56.7204 18.5 57.2727C18.5 57.825 18.0523 58.2727 17.5 58.2727L17.5 56.2727ZM17.5 58.2727L1.53962e-05 58.2727L1.51214e-05 56.2727L17.5 56.2727L17.5 58.2727Z" fill="black" fill-opacity="0.85"/>
<path d="M17.5 44.8182C18.0523 44.8182 18.5 45.2659 18.5 45.8182C18.5 46.3704 18.0523 46.8182 17.5 46.8182L17.5 44.8182ZM17.5 46.8182L1.53962e-05 46.8182L1.51214e-05 44.8182L17.5 44.8182L17.5 46.8182Z" fill="black" fill-opacity="0.85"/>
<path d="M17.5 33.3636C18.0523 33.3636 18.5 33.8113 18.5 34.3636C18.5 34.9159 18.0523 35.3636 17.5 35.3636L17.5 33.3636ZM17.5 35.3636L1.53962e-05 35.3636L1.51214e-05 33.3636L17.5 33.3636L17.5 35.3636Z" fill="black" fill-opacity="0.85"/>
<path d="M35 78.1818C36.1046 78.1818 37 79.0772 37 80.1818C37 81.2863 36.1046 82.1818 35 82.1818L35 78.1818ZM35 82.1818L3.09183e-05 82.1818L3.01169e-05 78.1818L35 78.1818L35 82.1818Z" fill="black" fill-opacity="0.85"/>
<path d="M69.9995 820.581C71.6564 820.581 72.9995 821.924 72.9995 823.581C72.9995 825.238 71.6564 826.581 69.9995 826.581L69.9995 820.581ZM69.9995 826.581L-0.000426934 826.581L-0.000427558 820.581L69.9995 820.581L69.9995 826.581Z" fill="black" fill-opacity="0.85"/>
<path d="M17.5 811.127C18.0523 811.127 18.5 811.574 18.5 812.127C18.5 812.679 18.0523 813.127 17.5 813.127L17.5 811.127ZM17.5 813.127L1.56595e-05 813.127L1.48581e-05 811.127L17.5 811.127L17.5 813.127Z" fill="black" fill-opacity="0.85"/>
<path d="M17.5 799.672C18.0523 799.672 18.5 800.12 18.5 800.672C18.5 801.224 18.0523 801.672 17.5 801.672L17.5 799.672ZM17.5 801.672L1.53974e-05 801.672L1.51202e-05 799.672L17.5 799.672L17.5 801.672Z" fill="black" fill-opacity="0.85"/>
<path d="M17.5 788.218C18.0523 788.218 18.5 788.665 18.5 789.218C18.5 789.77 18.0523 790.218 17.5 790.218L17.5 788.218ZM17.5 790.218L1.53962e-05 790.218L1.51214e-05 788.218L17.5 788.218L17.5 790.218Z" fill="black" fill-opacity="0.85"/>
<path d="M17.5 776.763C18.0523 776.763 18.5 777.211 18.5 777.763C18.5 778.315 18.0523 778.763 17.5 778.763L17.5 776.763ZM17.5 778.763L1.53962e-05 778.763L1.51214e-05 776.763L17.5 776.763L17.5 778.763Z" fill="black" fill-opacity="0.85"/>
<path d="M17.5 753.854C18.0523 753.854 18.5 754.302 18.5 754.854C18.5 755.406 18.0523 755.854 17.5 755.854L17.5 753.854ZM17.5 755.854L1.53962e-05 755.854L1.51214e-05 753.854L17.5 753.854L17.5 755.854Z" fill="black" fill-opacity="0.85"/>
<path d="M17.5 742.399C18.0523 742.399 18.5 742.847 18.5 743.399C18.5 743.952 18.0523 744.399 17.5 744.399L17.5 742.399ZM17.5 744.399L1.53962e-05 744.399L1.51214e-05 742.399L17.5 742.399L17.5 744.399Z" fill="black" fill-opacity="0.85"/>
<path d="M17.5 730.945C18.0523 730.945 18.5 731.393 18.5 731.945C18.5 732.497 18.0523 732.945 17.5 732.945L17.5 730.945ZM17.5 732.945L1.53962e-05 732.945L1.51214e-05 730.945L17.5 730.945L17.5 732.945Z" fill="black" fill-opacity="0.85"/>
<path d="M17.5 719.49C18.0523 719.49 18.5 719.938 18.5 720.49C18.5 721.043 18.0523 721.49 17.5 721.49L17.5 719.49ZM17.5 721.49L1.53962e-05 721.49L1.51214e-05 719.49L17.5 719.49L17.5 721.49Z" fill="black" fill-opacity="0.85"/>
<path d="M35 764.308C36.1046 764.308 37 765.204 37 766.308C37 767.413 36.1046 768.308 35 768.308L35 764.308ZM35 768.308L3.09183e-05 768.308L3.01169e-05 764.308L35 764.308L35 768.308Z" fill="black" fill-opacity="0.85"/>
<path d="M17.5 10.4545C18.0523 10.4545 18.5 10.9022 18.5 11.4545C18.5 12.0068 18.0523 12.4545 17.5 12.4545L17.5 10.4545ZM17.5 12.4545L1.56595e-05 12.4545L1.48581e-05 10.4545L17.5 10.4545L17.5 12.4545Z" fill="black" fill-opacity="0.85"/>
</svg>
