<svg width="143" height="116" viewBox="0 0 143 116" fill="none" xmlns="http://www.w3.org/2000/svg">
<path d="M83.8803 54.286C82.6803 52.4527 84.7803 55.8527 83.8803 54.286C79.9803 47.586 75.0851 34.7337 65.7851 33.3337V18.3337C65.7851 11.9003 58.8851 6.66699 52.4517 6.66699C46.0184 6.66699 38.166 11.9003 38.166 18.3337V73.3337H44.8327V66.667H54.8327V73.3337H65.7851V45.7146C71.6517 46.8479 73.3279 54.9003 76.2613 60.0003C74.9613 58.0337 77.2279 61.7003 76.2613 60.0003C83.7279 71.2003 90.3993 73.3337 104.833 73.3337V64.7622C93.266 64.7622 90.447 64.1194 83.8803 54.286ZM49.8327 13.3337C52.5993 13.3337 54.8327 15.567 54.8327 18.3337V33.3337H44.8327V18.3337C44.8327 15.567 47.066 13.3337 49.8327 13.3337ZM44.8327 60.0003V53.3337H54.8327V60.0003H44.8327ZM54.8327 46.667H44.8327V40.0003H54.8327V46.667Z" fill="#7408FD"/>
<path d="M18.3137 111V96.4545H24.3223C25.4113 96.4545 26.3511 96.6676 27.1419 97.0938C27.9373 97.5152 28.5505 98.1046 28.9814 98.8622C29.4122 99.6151 29.6277 100.491 29.6277 101.49C29.6277 102.494 29.4075 103.372 28.9672 104.125C28.5315 104.873 27.9089 105.453 27.0993 105.865C26.2896 106.277 25.3284 106.483 24.2157 106.483H20.5083V103.713H23.5623C24.0926 103.713 24.5353 103.621 24.8904 103.436C25.2503 103.251 25.5226 102.993 25.7072 102.662C25.8919 102.326 25.9842 101.935 25.9842 101.49C25.9842 101.04 25.8919 100.652 25.7072 100.325C25.5226 99.9938 25.2503 99.7382 24.8904 99.5582C24.5306 99.3783 24.0879 99.2884 23.5623 99.2884H21.8294V111H18.3137ZM34.8336 96.4545V111H31.3606V96.4545H34.8336ZM40.1195 111.185C39.4235 111.185 38.8056 111.069 38.2658 110.837C37.7308 110.6 37.307 110.245 36.9945 109.771C36.6867 109.293 36.5328 108.694 36.5328 107.974C36.5328 107.368 36.6394 106.857 36.8525 106.44C37.0655 106.024 37.3591 105.685 37.7331 105.425C38.1072 105.164 38.5381 104.968 39.0257 104.835C39.5134 104.698 40.0343 104.606 40.5882 104.558C41.2085 104.501 41.708 104.442 42.0868 104.381C42.4656 104.314 42.7402 104.222 42.9107 104.104C43.0859 103.981 43.1735 103.808 43.1735 103.585V103.55C43.1735 103.185 43.048 102.903 42.7971 102.705C42.5461 102.506 42.2076 102.406 41.7814 102.406C41.3221 102.406 40.9528 102.506 40.6735 102.705C40.3941 102.903 40.2166 103.178 40.1408 103.528L36.9377 103.415C37.0324 102.752 37.2762 102.16 37.6692 101.639C38.0669 101.114 38.6114 100.702 39.3027 100.403C39.9988 100.1 40.8345 99.9489 41.8098 99.9489C42.5059 99.9489 43.1474 100.032 43.7346 100.197C44.3217 100.358 44.833 100.595 45.2686 100.908C45.7042 101.215 46.0404 101.594 46.2772 102.044C46.5186 102.494 46.6394 103.008 46.6394 103.585V111H43.3723V109.48H43.2871C43.093 109.849 42.8444 110.162 42.5414 110.418C42.2431 110.673 41.8903 110.865 41.4831 110.993C41.0807 111.121 40.6261 111.185 40.1195 111.185ZM41.1919 108.912C41.566 108.912 41.9022 108.836 42.2005 108.685C42.5035 108.533 42.745 108.325 42.9249 108.06C43.1048 107.79 43.1948 107.477 43.1948 107.122V106.085C43.0953 106.137 42.9746 106.185 42.8326 106.227C42.6953 106.27 42.5437 106.31 42.378 106.348C42.2123 106.386 42.0418 106.419 41.8667 106.447C41.6915 106.476 41.5234 106.502 41.3624 106.526C41.0357 106.578 40.7563 106.658 40.5243 106.767C40.2971 106.876 40.1219 107.018 39.9988 107.193C39.8804 107.364 39.8212 107.567 39.8212 107.804C39.8212 108.164 39.949 108.438 40.2047 108.628C40.4651 108.817 40.7942 108.912 41.1919 108.912ZM50.4959 115.091C50.0792 115.091 49.6863 115.058 49.3169 114.991C48.9476 114.93 48.6304 114.847 48.3652 114.743L49.1323 112.222C49.4732 112.335 49.781 112.402 50.0556 112.42C50.3349 112.439 50.574 112.394 50.7729 112.286C50.9765 112.181 51.1328 111.994 51.2417 111.724L51.3766 111.398L47.4988 100.091H51.1351L53.1451 107.875H53.2587L55.2971 100.091H58.9547L54.8425 112.044C54.6436 112.641 54.3619 113.166 53.9973 113.621C53.6375 114.08 53.1711 114.44 52.5982 114.7C52.03 114.961 51.3292 115.091 50.4959 115.091ZM65.0201 115.318C63.9831 115.318 63.0953 115.174 62.3567 114.885C61.6181 114.596 61.0381 114.201 60.6167 113.699C60.1953 113.197 59.9419 112.629 59.8567 111.994L63.1451 111.81C63.2066 112.032 63.3203 112.226 63.486 112.392C63.6564 112.558 63.8766 112.686 64.1465 112.776C64.4211 112.866 64.7431 112.911 65.1124 112.911C65.6948 112.911 66.1754 112.768 66.5542 112.484C66.9377 112.205 67.1294 111.715 67.1294 111.014V109.097H67.0087C66.8714 109.433 66.6631 109.733 66.3837 109.999C66.1043 110.264 65.7563 110.472 65.3397 110.624C64.9277 110.775 64.4542 110.851 63.9192 110.851C63.1238 110.851 62.3946 110.666 61.7317 110.297C61.0736 109.923 60.5456 109.345 60.1479 108.564C59.7549 107.778 59.5584 106.767 59.5584 105.531C59.5584 104.258 59.762 103.209 60.1692 102.385C60.5764 101.556 61.1091 100.943 61.7672 100.545C62.4301 100.148 63.1427 99.9489 63.905 99.9489C64.4779 99.9489 64.968 100.048 65.3752 100.247C65.7871 100.441 66.1257 100.692 66.3908 101C66.656 101.308 66.8572 101.627 66.9945 101.959H67.0939V100.091H70.5527V111.043C70.5527 111.966 70.3207 112.745 69.8567 113.379C69.3927 114.014 68.744 114.494 67.9107 114.821C67.0774 115.152 66.1138 115.318 65.0201 115.318ZM65.1266 108.322C65.548 108.322 65.9078 108.211 66.2061 107.989C66.5044 107.766 66.7341 107.446 66.8951 107.03C67.056 106.613 67.1365 106.114 67.1365 105.531C67.1365 104.939 67.056 104.43 66.8951 104.004C66.7388 103.573 66.5092 103.242 66.2061 103.01C65.9078 102.778 65.548 102.662 65.1266 102.662C64.6957 102.662 64.3311 102.78 64.0328 103.017C63.7346 103.254 63.5073 103.588 63.351 104.018C63.1995 104.445 63.1238 104.949 63.1238 105.531C63.1238 106.114 63.2019 106.613 63.3581 107.03C63.5144 107.446 63.7393 107.766 64.0328 107.989C64.3311 108.211 64.6957 108.322 65.1266 108.322ZM72.7669 111V100.091H76.1404V102.08H76.2541C76.4529 101.36 76.7773 100.825 77.2271 100.474C77.6769 100.119 78.2001 99.9418 78.7967 99.9418C78.9577 99.9418 79.1234 99.9536 79.2939 99.9773C79.4643 99.9962 79.6229 100.027 79.7697 100.07V103.088C79.604 103.031 79.3862 102.986 79.1163 102.953C78.8511 102.92 78.6144 102.903 78.4061 102.903C77.9941 102.903 77.6225 102.996 77.291 103.18C76.9643 103.36 76.7063 103.614 76.5169 103.94C76.3322 104.262 76.2399 104.641 76.2399 105.077V111H72.7669ZM85.7108 111.206C84.5649 111.206 83.5801 110.972 82.7562 110.503C81.9371 110.029 81.305 109.371 80.8599 108.528C80.4196 107.681 80.1994 106.698 80.1994 105.581C80.1994 104.459 80.4196 103.476 80.8599 102.634C81.305 101.786 81.9371 101.128 82.7562 100.659C83.5801 100.186 84.5649 99.9489 85.7108 99.9489C86.8566 99.9489 87.8391 100.186 88.6582 100.659C89.4821 101.128 90.1142 101.786 90.5545 102.634C90.9996 103.476 91.2221 104.459 91.2221 105.581C91.2221 106.698 90.9996 107.681 90.5545 108.528C90.1142 109.371 89.4821 110.029 88.6582 110.503C87.8391 110.972 86.8566 111.206 85.7108 111.206ZM85.7321 108.585C86.1487 108.585 86.5015 108.457 86.7903 108.202C87.0791 107.946 87.2993 107.591 87.4508 107.136C87.6071 106.682 87.6852 106.156 87.6852 105.56C87.6852 104.954 87.6071 104.423 87.4508 103.969C87.2993 103.514 87.0791 103.159 86.7903 102.903C86.5015 102.648 86.1487 102.52 85.7321 102.52C85.3012 102.52 84.9366 102.648 84.6383 102.903C84.3448 103.159 84.1199 103.514 83.9636 103.969C83.8121 104.423 83.7363 104.954 83.7363 105.56C83.7363 106.156 83.8121 106.682 83.9636 107.136C84.1199 107.591 84.3448 107.946 84.6383 108.202C84.9366 108.457 85.3012 108.585 85.7321 108.585ZM100.04 106.291V100.091H103.506V111H100.196V108.969H100.082C99.8407 109.636 99.4288 110.167 98.8464 110.56C98.2688 110.948 97.5704 111.142 96.7512 111.142C96.0079 111.142 95.3545 110.972 94.791 110.631C94.2276 110.29 93.7896 109.814 93.4771 109.203C93.1646 108.588 93.006 107.868 93.0012 107.044V100.091H96.4743V106.362C96.479 106.954 96.6352 107.42 96.943 107.761C97.2508 108.102 97.6698 108.273 98.2001 108.273C98.5458 108.273 98.8559 108.197 99.1305 108.045C99.4099 107.889 99.63 107.664 99.791 107.371C99.9567 107.072 100.04 106.713 100.04 106.291ZM109.189 104.778V111H105.716V100.091H109.019V102.094H109.139C109.381 101.426 109.793 100.903 110.375 100.524C110.958 100.141 111.651 99.9489 112.456 99.9489C113.223 99.9489 113.888 100.122 114.452 100.467C115.02 100.808 115.46 101.286 115.773 101.902C116.09 102.513 116.246 103.228 116.242 104.047V111H112.769V104.729C112.773 104.123 112.619 103.649 112.307 103.308C111.999 102.967 111.571 102.797 111.021 102.797C110.657 102.797 110.335 102.877 110.056 103.038C109.781 103.195 109.568 103.42 109.416 103.713C109.27 104.007 109.194 104.362 109.189 104.778ZM122.376 111.156C121.571 111.156 120.84 110.948 120.182 110.531C119.523 110.115 118.998 109.49 118.605 108.656C118.212 107.823 118.015 106.788 118.015 105.553C118.015 104.269 118.219 103.214 118.626 102.385C119.033 101.556 119.566 100.943 120.224 100.545C120.887 100.148 121.6 99.9489 122.362 99.9489C122.935 99.9489 123.425 100.048 123.832 100.247C124.239 100.441 124.576 100.692 124.841 101C125.106 101.308 125.307 101.627 125.444 101.959H125.515V96.4545H128.988V111H125.551V109.232H125.444C125.298 109.568 125.089 109.883 124.819 110.176C124.55 110.47 124.211 110.706 123.804 110.886C123.401 111.066 122.925 111.156 122.376 111.156ZM123.584 108.45C124.005 108.45 124.365 108.332 124.663 108.095C124.961 107.854 125.191 107.515 125.352 107.08C125.513 106.644 125.594 106.133 125.594 105.545C125.594 104.949 125.513 104.435 125.352 104.004C125.196 103.573 124.966 103.242 124.663 103.01C124.365 102.778 124.005 102.662 123.584 102.662C123.153 102.662 122.788 102.78 122.49 103.017C122.192 103.254 121.964 103.588 121.808 104.018C121.657 104.449 121.581 104.958 121.581 105.545C121.581 106.133 121.659 106.644 121.815 107.08C121.971 107.515 122.196 107.854 122.49 108.095C122.788 108.332 123.153 108.45 123.584 108.45Z" fill="#690AE3"/>
</svg>
