<svg width="81" height="80" viewBox="0 0 81 80" fill="none" xmlns="http://www.w3.org/2000/svg">
<path d="M52.8803 54.286C51.6803 52.4527 53.7803 55.8527 52.8803 54.286C48.9803 47.586 44.0851 34.7337 34.7851 33.3337V18.3337C34.7851 11.9003 27.8851 6.66699 21.4517 6.66699C15.0184 6.66699 7.16602 11.9003 7.16602 18.3337V73.3337H13.8327V66.667H23.8327V73.3337H34.7851V45.7146C40.6517 46.8479 42.3279 54.9003 45.2613 60.0003C43.9613 58.0337 46.2279 61.7003 45.2613 60.0003C52.7279 71.2003 59.3993 73.3337 73.8327 73.3337V64.7622C62.266 64.7622 59.447 64.1194 52.8803 54.286ZM18.8327 13.3337C21.5993 13.3337 23.8327 15.567 23.8327 18.3337V33.3337H13.8327V18.3337C13.8327 15.567 16.066 13.3337 18.8327 13.3337ZM13.8327 60.0003V53.3337H23.8327V60.0003H13.8327ZM23.8327 46.667H13.8327V40.0003H23.8327V46.667Z" fill="white"/>
</svg>
